<mxfile host="app.diagrams.net" modified="2024-02-29T11:56:23.496Z" agent="Mozilla/5.0 (Macintosh; Intel Mac OS X 10_15_7) AppleWebKit/537.36 (KHTML, like Gecko) Chrome/121.0.0.0 Safari/537.36" version="23.1.6" etag="CdkTi8Yr6XAS7uOPTna-" type="github">
  <diagram name="Страница — 1" id="3CcDpUCZSHZug8NYdDJ4">
    <mxGraphModel>
      <root>
        <mxCell id="0" />
        <mxCell id="1" parent="0" />
      </root>
    </mxGraphModel>
  </diagram>
</mxfile>
